
<svg viewBox="0 0 1094.28 252" fill="none" xmlns="http://www.w3.org/2000/svg">
<g id="Layer_2" data-name="Layer 2"><g id="Layer_1-2" data-name="Layer 1">
<path class="cls-1" d="M37.6949 210.135C16.0599 187.022 4.25698 156.404 4.77966 124.749C5.30234 93.0942 18.1097 62.8823 40.496 40.496C62.8823 18.1097 93.0942 5.30234 124.749 4.77966C156.404 4.25698 187.022 16.0599 210.135 37.6949L212.945 34.8849C189.154 12.1524 157.411 -0.366007 124.508 0.00815212C91.6047 0.382311 60.1546 13.6193 36.887 36.887C13.6193 60.1546 0.382311 91.6047 0.00815212 124.508C-0.366007 157.411 12.1524 189.154 34.8849 212.945L37.6949 210.135Z" fill="black"/>
<path class="cls-1" d="M215.765 37.6749L212.955 40.4849C234.807 63.5613 246.791 94.2538 246.358 126.032C245.925 157.809 233.109 188.164 210.636 210.636C188.164 233.109 157.809 245.925 126.032 246.358C94.2538 246.791 63.5613 234.807 40.4849 212.955L37.6749 215.765C61.3288 239.2 93.3015 252.314 126.599 252.237C159.896 252.16 191.808 238.898 215.353 215.353C238.898 191.808 252.16 159.896 252.237 126.599C252.314 93.3015 239.2 61.3288 215.765 37.6749Z" fill="black"/>
<path class="cls-1" d="M170.445 45V44.5H169.945H111.406C85.3577 44.5 65.9542 49.8662 53.1185 62.0995C42.8967 71.7207 35.5 86.5371 35.5 105.722C35.5 129.882 45.2915 148.091 61.0996 159.898C76.4971 171.496 97.2557 176.667 122.32 176.667H171.929H172.429V176.167V170.61V170.148L171.968 170.112C167.549 169.764 164.159 169.431 161.546 168.863C158.935 168.295 157.164 167.504 155.935 166.287C154.71 165.073 153.964 163.377 153.53 160.87C153.095 158.356 152.982 155.084 152.982 150.767V70.3999C152.982 66.0839 153.095 62.8211 153.5 60.3257C153.905 57.8336 154.593 56.1663 155.699 54.9918C156.804 53.8179 158.386 53.0741 160.712 52.5542C163.043 52.0331 166.058 51.7497 169.983 51.4517L170.445 51.4166V50.9531V45ZM80.7119 61.1023L80.712 61.1025L80.723 61.0953C89.7441 55.2119 101.545 52.4453 115.375 52.4453C119.819 52.4453 123.311 52.7417 125.954 53.2067C128.599 53.672 130.357 54.3 131.369 54.9409C132.233 55.5486 132.818 56.3714 133.193 58.0331C133.576 59.7339 133.726 62.2627 133.726 66.2327V149.378C133.726 157.061 132.05 161.682 128.677 164.418C125.276 167.177 120.028 168.126 112.597 168.126C93.8808 168.126 80.1356 161.188 71.0606 150.322C61.9751 139.444 57.5343 124.585 57.5343 108.698C57.5343 87.7867 65.4204 70.5125 80.7119 61.1023Z" fill="black" stroke="white"/>
<path class="cls-1" d="M191.836 190.247C207.644 178.441 217.436 160.232 217.436 136.071C217.436 116.887 210.039 102.07 199.818 92.449C186.982 80.2156 167.578 74.8494 141.53 74.8494H82.9911H82.4911V75.3494V81.3025V81.7659L191.536 189.847M191.836 190.247C191.836 190.247 191.836 190.248 191.835 190.248L191.536 189.847M191.836 190.247C191.837 190.247 191.837 190.247 191.837 190.247L191.536 189.847M191.836 190.247C176.439 201.845 155.68 207.016 130.616 207.016H81.0068H80.5068V206.516V200.96V200.498L80.9676 200.461C85.3868 200.114 88.7769 199.781 91.3897 199.212C94.0006 198.644 95.7718 197.854 97.0011 196.636C98.2258 195.423 98.9719 193.726 99.4059 191.219C99.8411 188.705 99.9536 185.433 99.9536 181.116V176.112V175.563L100.5 175.614L109.706 176.47L109.665 176.968M191.536 189.847C176.256 201.357 155.619 206.516 130.616 206.516H81.5068H81.0068V206.016V200.96C98.6676 199.571 100.454 198.38 100.454 181.116V176.614L100.407 176.61L100.454 176.112H100.954V176.158L109.665 176.968M109.665 176.968L109.711 176.47M109.665 176.968L118.71 177.712V179.727C118.71 195.205 125.457 198.975 140.339 198.975C178.042 198.975 195.902 170.996 195.902 139.048C195.902 118.013 187.964 100.551 172.486 91.0259L109.711 176.47M109.711 176.47L118.751 177.214L119.21 177.252V177.712V179.727C119.21 187.411 120.886 192.032 124.259 194.767C127.66 197.526 132.908 198.475 140.339 198.475C159.055 198.475 172.8 191.537 181.875 180.672C190.961 169.794 195.402 154.934 195.402 139.048C195.402 118.136 187.516 100.862 172.224 91.4517L172.213 91.4448L172.213 91.4447C163.192 85.5613 151.391 82.7946 137.561 82.7946C133.117 82.7946 129.625 83.0911 126.982 83.556C124.337 84.0214 122.579 84.6494 121.567 85.2902M109.711 176.47L121.567 85.2902M121.567 85.2902C121.57 85.2881 121.573 85.286 121.576 85.2839L121.289 84.8743L121.558 85.2962C121.561 85.2942 121.564 85.2922 121.567 85.2902Z" fill="black" stroke="white"/>
<path class="cls-1" d="M299.197 121.319C299.197 133.479 298.557 169.639 298.077 172.839C297.597 175.559 295.997 176.839 292.797 176.839H283.517C282.557 176.839 282.237 177.159 282.237 177.799V181.799C282.237 182.919 282.557 183.239 283.197 183.239C285.437 183.239 291.837 182.759 305.917 182.759C313.917 182.759 330.237 183.239 336.317 183.239C347.197 183.239 372.157 183.079 387.837 166.119C398.397 154.599 403.517 142.439 403.517 124.199C403.517 105.639 396.157 92.1986 385.597 83.5586C370.877 71.0786 353.597 68.9986 332.157 68.9986C324.157 68.9986 316.157 69.4786 308.157 69.4786C296.957 69.4786 288.637 68.9986 283.997 68.9986C283.197 68.9986 282.557 69.3186 282.557 69.9586V74.2786C282.557 75.0786 283.197 75.3986 283.837 75.3986H292.477C295.677 75.3986 297.917 76.0386 298.237 79.8786C298.557 82.2786 299.197 104.999 299.197 109.159V121.319ZM319.357 113.319C319.357 110.759 319.357 89.9586 319.677 83.2386C319.677 80.0386 320.317 77.4786 322.557 76.1986C325.117 74.5986 329.277 74.5986 332.797 74.5986C345.917 74.5986 359.997 80.3586 368.637 89.6386C375.997 97.9586 381.437 111.719 381.437 124.519C381.437 139.239 376.637 152.359 369.917 160.999C361.917 171.559 349.117 177.159 336.637 177.159C330.557 177.159 324.477 175.879 322.557 172.839C320.317 169.639 319.677 167.079 319.677 163.879C319.677 153.959 319.357 126.759 319.357 124.839V113.319Z" fill="black"/>
<path class="cls-1" d="M468.977 158.439C468.977 163.559 468.977 171.879 468.657 174.119C468.337 176.679 466.097 177.319 464.177 177.319H461.457C460.657 177.319 460.337 177.639 460.337 178.279V182.119C460.337 182.919 460.657 183.239 461.617 183.239C463.217 183.239 468.977 182.759 478.577 182.759C488.337 182.759 493.457 183.239 494.417 183.239C495.377 183.239 495.697 182.759 495.697 181.959V178.439C495.697 177.639 495.377 177.319 494.097 177.319H491.217C488.657 177.319 485.777 176.999 485.777 174.759V144.039C485.777 134.919 486.097 126.919 478.737 120.519C473.937 116.359 469.777 114.119 462.737 114.119C455.217 114.119 446.577 117.639 442.097 123.879H441.137V113.959C441.137 106.119 441.137 73.7986 441.457 70.9186C441.777 68.3586 441.457 67.0786 440.177 67.0786C438.577 67.0786 437.617 67.7186 435.697 68.3586C430.577 70.9186 419.697 76.3586 414.897 77.6386C412.977 78.5986 412.657 78.9186 412.657 79.5586V81.1586C412.657 81.7986 412.977 82.1186 413.937 82.4386L416.817 83.3986C422.257 85.6386 424.177 88.8386 424.177 97.7986L424.497 154.919C424.497 162.279 424.337 171.559 423.697 174.759C423.217 176.679 420.977 177.319 418.417 177.319H414.417C413.617 177.319 412.977 177.639 412.977 178.439V181.959C412.977 182.919 413.457 183.239 414.257 183.239C415.537 183.239 421.617 182.759 431.537 182.759C439.857 182.759 446.897 183.239 448.177 183.239C449.137 183.239 449.457 182.599 449.457 181.639V178.759C449.457 177.639 448.817 177.319 447.857 177.319H444.017C441.777 177.319 441.137 175.719 441.137 170.599V136.039C441.137 132.999 442.737 129.799 444.017 128.199C447.537 124.679 451.697 122.439 455.857 122.439C459.697 122.439 462.257 123.719 464.817 126.279C468.977 130.439 468.977 139.399 468.977 147.719V158.439Z" fill="black"/>
<path class="cls-1" d="M512.325 172.999C512.325 176.039 510.725 177.319 508.165 177.319H502.565C501.445 177.319 501.125 177.639 501.125 178.599V182.119C501.125 182.919 501.445 183.239 502.245 183.239C503.525 183.239 509.765 182.759 520.965 182.759C532.645 182.759 539.685 183.239 540.805 183.239C541.605 183.239 541.925 182.919 541.925 182.119V178.439C541.925 177.639 541.605 177.319 540.645 177.319H533.605C530.405 177.319 529.125 175.719 529.125 170.599V140.039C529.125 137.959 529.765 134.439 531.045 132.199C532.965 128.839 535.845 127.559 537.765 127.559C539.365 127.559 540.965 127.879 542.245 128.839C543.525 129.479 545.445 130.119 547.685 130.119C551.845 130.119 556.325 125.959 556.325 121.479C556.325 116.999 553.125 113.479 548.005 113.479C540.965 113.479 534.245 118.919 528.805 127.879H528.165L526.725 116.039C526.565 115.079 526.245 114.119 525.285 114.119C524.325 114.119 523.685 114.439 522.725 114.759L503.365 123.879C502.405 124.359 502.085 124.679 502.085 125.319V126.279C502.085 126.919 502.405 127.239 503.365 127.559L506.245 129.159C511.045 131.719 512.325 134.279 512.325 141.639V172.999Z" fill="black"/>
<path class="cls-1" d="M614.721 182.759C614.881 184.039 615.681 184.679 616.961 184.679C618.241 184.679 619.201 184.359 620.161 184.039L640.001 178.439C640.641 178.279 640.961 177.959 640.801 176.999L640.321 174.439C640.161 173.799 639.681 173.639 638.401 173.799C636.481 174.119 634.241 174.119 633.281 174.119C632.001 174.119 630.401 173.479 629.761 168.679C629.441 165.479 629.441 157.799 629.441 150.119V138.439C629.441 122.599 630.401 118.439 630.401 116.839C630.401 116.199 630.081 115.239 629.121 115.239C628.481 115.239 627.841 115.399 627.041 115.559C626.241 115.719 625.441 115.879 624.321 115.879H604.481C603.041 115.879 602.561 116.039 602.561 117.159V120.039C602.561 120.679 602.881 120.999 605.761 121.319C609.601 121.639 612.641 122.599 612.641 126.759V164.519C612.641 166.439 611.521 168.679 610.881 169.639C608.321 173.159 603.521 175.719 599.681 175.719C596.161 175.719 592.641 176.039 589.441 171.239C585.121 164.519 586.241 153.639 586.241 147.239V137.159C586.241 126.119 586.881 118.759 586.881 117.159C586.881 116.199 586.241 115.239 585.281 115.239C584.801 115.239 584.161 115.399 583.521 115.559C582.881 115.719 582.081 115.879 581.121 115.879H561.921C560.321 115.879 560.001 116.199 560.001 117.159V120.039C560.001 120.999 560.961 120.999 563.521 121.319C566.401 121.639 568.641 123.079 569.121 127.079C569.441 128.999 569.441 134.759 569.441 138.599C569.441 141.959 569.281 147.559 569.281 155.239C569.281 164.199 569.441 170.119 575.201 177.639C580.801 184.679 585.921 184.679 591.681 184.679C600.001 184.679 609.281 179.559 612.801 173.799H613.761L614.721 182.759Z" fill="black"/>
<path class="cls-1" d="M677.18 185.159C679.1 185.159 680.06 183.879 681.18 181.799C681.98 180.199 693.98 152.839 696.06 148.519C699.26 141.799 706.62 125.959 709.5 123.079C711.1 121.639 713.66 121.319 715.58 121.319H718.3C719.1 121.319 719.42 120.839 719.42 120.039V116.519C719.42 115.719 719.1 115.399 717.82 115.399C716.54 115.399 712.7 115.879 705.34 115.879C696.7 115.879 693.18 115.399 691.26 115.399C690.3 115.399 689.98 115.719 689.98 116.519V120.039C689.98 120.839 690.3 121.319 690.94 121.319H693.5C696.38 121.319 698.3 124.199 697.02 128.359C694.78 135.879 685.18 159.079 683.26 163.559H682.3L674.3 142.759C673.34 139.879 668.86 126.919 668.86 124.039C668.86 122.279 670.46 121.319 672.38 121.319H674.94C675.9 121.319 676.22 120.679 676.22 119.719V116.679C676.22 115.719 675.9 115.399 674.62 115.399C672.7 115.399 668.54 115.879 658.62 115.879C645.5 115.879 642.94 115.399 641.02 115.399C639.74 115.399 639.42 115.719 639.42 116.679V120.039C639.42 120.999 639.74 121.319 640.54 121.319H643.58C646.46 121.319 647.74 122.599 650.3 127.079C651.58 129.159 657.82 145.639 658.94 148.839C660.54 152.839 672.06 179.879 673.02 181.479C674.3 183.879 675.26 185.159 677.18 185.159Z" fill="black"/>
<path class="cls-1" d="M769.51 121.319C769.51 133.479 768.87 169.639 768.39 172.839C767.91 175.559 766.31 176.839 763.11 176.839H753.83C752.87 176.839 752.55 177.159 752.55 177.799V181.799C752.55 182.919 752.87 183.239 753.51 183.239C755.75 183.239 762.15 182.759 776.23 182.759C784.23 182.759 800.55 183.239 806.63 183.239C817.51 183.239 842.47 183.079 858.15 166.119C868.71 154.599 873.83 142.439 873.83 124.199C873.83 105.639 866.47 92.1986 855.91 83.5586C841.19 71.0786 823.91 68.9986 802.47 68.9986C794.47 68.9986 786.47 69.4786 778.47 69.4786C767.27 69.4786 758.95 68.9986 754.31 68.9986C753.51 68.9986 752.87 69.3186 752.87 69.9586V74.2786C752.87 75.0786 753.51 75.3986 754.15 75.3986H762.79C765.99 75.3986 768.23 76.0386 768.55 79.8786C768.87 82.2786 769.51 104.999 769.51 109.159V121.319ZM789.67 113.319C789.67 110.759 789.67 89.9586 789.99 83.2386C789.99 80.0386 790.63 77.4786 792.87 76.1986C795.43 74.5986 799.59 74.5986 803.11 74.5986C816.23 74.5986 830.31 80.3586 838.95 89.6386C846.31 97.9586 851.75 111.719 851.75 124.519C851.75 139.239 846.95 152.359 840.23 160.999C832.23 171.559 819.43 177.159 806.95 177.159C800.87 177.159 794.79 175.879 792.87 172.839C790.63 169.639 789.99 167.079 789.99 163.879C789.99 153.959 789.67 126.759 789.67 124.839V113.319Z" fill="black"/>
<path class="cls-1" d="M903.9 142.279H942.62C945.5 142.279 947.1 142.119 947.1 139.719C947.1 133.159 941.18 114.119 922.94 114.119C909.02 114.119 901.82 117.319 895.1 125.959C888.22 134.919 887.26 140.839 887.26 149.639C887.26 159.559 888.86 167.559 896.22 176.039C901.82 182.439 909.02 184.679 919.26 184.679C936.86 184.679 945.02 173.799 948.38 167.719C949.5 165.639 949.18 164.999 948.38 164.519L945.98 163.079C945.34 162.759 944.7 162.759 944.06 163.879C940.7 168.999 934.62 173.159 924.7 173.159C915.58 173.159 903.9 163.559 903.9 147.239V142.279ZM904.38 136.519C906.46 125.799 911.26 120.039 919.1 120.039C927.42 120.039 929.02 129.479 929.02 134.279C929.02 135.559 927.1 136.519 923.74 136.519H904.38Z" fill="black"/>
<path class="cls-1" d="M960.315 178.759C960.475 179.399 960.955 179.879 961.595 180.519C963.355 181.959 970.395 184.679 978.875 184.679C994.715 184.679 1005.59 175.079 1005.59 161.639C1005.59 156.199 1004.31 152.359 1000.79 148.839C996.635 144.359 992.155 142.439 984.795 140.519C975.195 137.959 970.395 136.039 970.395 129.479C970.395 123.879 975.515 120.359 981.435 120.359C986.715 120.359 989.595 123.239 991.515 125.319L999.195 133.959C999.515 134.599 999.995 134.759 1000.47 134.599L1003.51 133.159C1003.83 132.839 1003.83 132.039 1003.67 131.399L1001.59 120.519C1001.43 119.559 1000.95 118.919 998.555 117.639C995.675 116.039 990.875 114.119 983.035 114.119C976.475 114.119 971.995 115.559 966.395 119.399C960.795 123.399 958.235 129.159 958.235 136.199C958.235 147.559 966.875 152.999 977.755 156.199C988.955 159.399 993.115 162.279 993.115 168.679C993.115 174.599 987.995 178.439 981.755 178.439C973.915 178.439 970.875 174.599 967.995 169.799L962.715 160.839C962.395 160.199 961.915 160.199 961.275 160.359L958.235 161.319C957.755 161.479 957.595 161.959 957.755 162.599L960.315 178.759Z" fill="black"/>
<path class="cls-1" d="M1053.61 174.919C1055.85 181.799 1060.97 184.679 1067.05 184.679C1076.33 184.679 1080.17 178.279 1081.77 175.399C1082.41 173.799 1082.09 173.159 1081.45 172.839L1079.53 171.559C1078.89 171.239 1078.57 171.239 1077.93 172.199C1077.29 173.479 1075.05 174.759 1072.81 174.759C1069.93 174.759 1068.65 172.199 1068.65 163.559V155.879L1068.33 130.599C1068.33 126.279 1068.01 121.799 1064.49 118.599C1061.61 116.039 1058.73 114.119 1049.77 114.119C1039.21 114.119 1030.57 117.959 1023.85 123.079C1019.05 126.599 1016.49 131.719 1016.49 136.199C1016.49 139.719 1019.05 141.639 1021.93 141.639C1028.65 141.639 1031.53 138.119 1031.53 132.359C1031.53 128.519 1029.93 126.119 1032.17 124.519C1034.73 122.599 1038.57 121.639 1041.45 121.639C1044.97 121.639 1047.85 122.279 1049.45 124.039C1051.37 125.959 1051.69 129.799 1052.01 132.999V141.319C1048.49 143.879 1042.41 146.439 1032.49 151.239C1020.97 156.359 1017.77 163.559 1017.77 170.919C1017.77 179.879 1022.89 184.679 1028.81 184.679C1032.01 184.679 1035.37 184.679 1039.05 183.559C1045.29 181.479 1049.45 178.759 1052.97 174.919H1053.61ZM1052.01 168.199C1052.01 171.079 1046.25 175.559 1041.77 175.879C1037.93 175.879 1034.41 172.679 1034.41 166.119C1034.41 154.439 1044.97 151.719 1052.01 147.239V168.199Z" fill="black"/>
<path class="cls-1" d="M1095.91 159.719C1095.91 164.199 1095.75 169.319 1095.59 174.119C1095.43 176.679 1094.63 177.319 1093.03 177.319H1085.99C1085.03 177.319 1084.39 177.639 1084.39 178.599V181.639C1084.39 182.919 1084.87 183.239 1085.67 183.239C1087.59 183.239 1093.67 182.759 1102.95 182.759C1113.67 182.759 1121.03 183.239 1122.31 183.239C1123.27 183.239 1123.59 182.599 1123.59 181.639V178.439C1123.59 177.639 1123.27 177.319 1121.99 177.319H1115.59C1113.99 177.319 1113.35 176.039 1113.03 173.159C1112.71 171.239 1112.71 165.479 1112.71 159.399V142.119C1112.71 128.839 1112.71 118.599 1113.03 116.039C1113.19 114.759 1112.71 114.119 1111.75 114.119C1110.79 114.119 1109.51 114.439 1107.91 115.079C1105.19 116.199 1089.35 121.799 1087.11 122.759C1086.31 123.079 1085.99 123.399 1085.99 124.039V125.799C1085.99 126.439 1086.15 126.919 1087.59 127.239C1094.95 129.159 1095.91 132.359 1095.91 137.159V159.719ZM1112.23 87.7186C1112.23 83.8786 1109.03 78.4386 1102.31 78.4386C1095.75 78.4386 1091.11 83.5586 1091.11 88.3586C1091.11 93.9586 1096.23 97.9586 1101.35 97.9586C1108.87 97.9586 1112.23 92.5186 1112.23 87.7186Z" fill="black"/>
</g></g>
</svg>
