<?xml version="1.0" standalone="no"?>
<!DOCTYPE svg PUBLIC "-//W3C//DTD SVG 20010904//EN"
 "http://www.w3.org/TR/2001/REC-SVG-20010904/DTD/svg10.dtd">
<svg version="1.0" xmlns="http://www.w3.org/2000/svg"
 width="800.000000pt" height="600.000000pt" viewBox="0 0 800.000000 600.000000"
 preserveAspectRatio="xMidYMid meet">
<metadata>
Created by potrace 1.16, written by Peter Selinger 2001-2019
</metadata>
<g transform="translate(0.000000,600.000000) scale(0.100000,-0.100000)"
fill="#000000" stroke="none">
<path d="M10 3000 l0 -3000 3995 0 3995 0 0 3000 0 3000 -3995 0 -3995 0 0
-3000z m4760 1393 c29 -16 53 -31 54 -35 0 -4 -26 -44 -59 -87 -57 -77 -62
-80 -100 -80 -38 0 -43 3 -103 82 l-63 82 27 21 c63 51 165 58 244 17z m-715
-295 c87 -13 174 -39 291 -88 50 -21 105 -41 122 -45 70 -15 146 40 158 114 5
34 9 37 37 36 l32 -1 0 -409 0 -410 -33 -2 c-26 -1 -33 3 -36 20 -54 275 -100
389 -206 510 -55 62 -171 138 -269 176 -93 36 -116 39 -108 14 4 -16 318 -741
457 -1058 26 -60 121 -279 210 -485 89 -206 190 -431 224 -499 89 -182 162
-247 306 -274 59 -11 60 -12 60 -44 l0 -33 -495 0 -495 0 0 35 c0 27 4 35 18
35 41 0 96 24 133 57 91 83 104 171 46 316 -77 189 -129 235 -542 469 -455
259 -584 348 -686 473 -104 127 -151 256 -151 415 -1 176 54 317 174 445 194
208 435 282 753 233z m-559 -1373 c-2 -5 -73 -169 -157 -364 -83 -194 -154
-372 -156 -395 -14 -120 75 -240 199 -269 50 -11 53 -14 54 -44 l1 -33 -349 0
-348 0 0 35 c0 31 3 35 25 35 55 0 139 43 195 99 69 70 109 147 280 536 73
165 147 333 166 373 l33 73 31 -18 c17 -9 28 -22 26 -28z"/>
<path d="M3828 4035 c-163 -41 -286 -155 -339 -313 -18 -54 -21 -80 -17 -163
4 -88 9 -107 41 -172 50 -102 114 -160 304 -277 231 -142 335 -197 326 -173
-53 133 -269 643 -274 643 -3 0 -36 -71 -74 -157 -37 -87 -71 -162 -75 -166
-4 -4 -17 1 -30 11 l-23 19 165 374 c91 206 165 376 163 377 -11 11 -119 9
-167 -3z"/>
</g>
</svg>
