<svg viewBox="0 0 1094.28 252" fill="none" xmlns="http://www.w3.org/2000/svg">
<g id="Layer_2" data-name="Layer 2"><g id="Layer_1-2" data-name="Layer 1">
<path class="cls-1" d="M37.6949 210.135C16.0599 187.022 4.25698 156.404 4.77966 124.749C5.30234 93.0942 18.1097 62.8823 40.496 40.496C62.8823 18.1097 93.0942 5.30234 124.749 4.77966C156.404 4.25698 187.022 16.0599 210.135 37.6949L212.945 34.8849C189.154 12.1524 157.411 -0.366007 124.508 0.00815212C91.6047 0.382311 60.1546 13.6193 36.887 36.887C13.6193 60.1546 0.382311 91.6047 0.00815212 124.508C-0.366007 157.411 12.1524 189.154 34.8849 212.945L37.6949 210.135Z" fill="black"/>
<path class="cls-1" d="M215.765 37.6749L212.955 40.4849C234.807 63.5613 246.791 94.2538 246.358 126.032C245.925 157.809 233.109 188.164 210.636 210.636C188.164 233.109 157.809 245.925 126.032 246.358C94.2538 246.791 63.5613 234.807 40.4849 212.955L37.6749 215.765C61.3288 239.2 93.3015 252.314 126.599 252.237C159.896 252.16 191.808 238.898 215.353 215.353C238.898 191.808 252.16 159.896 252.237 126.599C252.314 93.3015 239.2 61.3288 215.765 37.6749Z" fill="black"/>
<path class="cls-1" d="M170.445 45V44.5H169.945H111.406C85.3577 44.5 65.9542 49.8662 53.1185 62.0995C42.8967 71.7207 35.5 86.5371 35.5 105.722C35.5 129.882 45.2915 148.091 61.0996 159.898C76.4971 171.496 97.2557 176.667 122.32 176.667H171.929H172.429V176.167V170.61V170.148L171.968 170.112C167.549 169.764 164.159 169.431 161.546 168.863C158.935 168.295 157.164 167.504 155.935 166.287C154.71 165.073 153.964 163.377 153.53 160.87C153.095 158.356 152.982 155.084 152.982 150.767V70.3999C152.982 66.0839 153.095 62.8211 153.5 60.3257C153.905 57.8336 154.593 56.1663 155.699 54.9918C156.804 53.8179 158.386 53.0741 160.712 52.5542C163.043 52.0331 166.058 51.7497 169.983 51.4517L170.445 51.4166V50.9531V45ZM80.7119 61.1023L80.712 61.1025L80.723 61.0953C89.7441 55.2119 101.545 52.4453 115.375 52.4453C119.819 52.4453 123.311 52.7417 125.954 53.2067C128.599 53.672 130.357 54.3 131.369 54.9409C132.233 55.5486 132.818 56.3714 133.193 58.0331C133.576 59.7339 133.726 62.2627 133.726 66.2327V149.378C133.726 157.061 132.05 161.682 128.677 164.418C125.276 167.177 120.028 168.126 112.597 168.126C93.8808 168.126 80.1356 161.188 71.0606 150.322C61.9751 139.444 57.5343 124.585 57.5343 108.698C57.5343 87.7867 65.4204 70.5125 80.7119 61.1023Z" fill="black" stroke="white"/>
<path class="cls-1" d="M191.836 190.247C207.644 178.441 217.436 160.232 217.436 136.071C217.436 116.887 210.039 102.07 199.818 92.449C186.982 80.2156 167.578 74.8494 141.53 74.8494H82.9911H82.4911V75.3494V81.3025V81.7659L191.536 189.847M191.836 190.247C191.836 190.247 191.836 190.248 191.835 190.248L191.536 189.847M191.836 190.247C191.837 190.247 191.837 190.247 191.837 190.247L191.536 189.847M191.836 190.247C176.439 201.845 155.68 207.016 130.616 207.016H81.0068H80.5068V206.516V200.96V200.498L80.9676 200.461C85.3868 200.114 88.7769 199.781 91.3897 199.212C94.0006 198.644 95.7718 197.854 97.0011 196.636C98.2258 195.423 98.9719 193.726 99.4059 191.219C99.8411 188.705 99.9536 185.433 99.9536 181.116V176.112V175.563L100.5 175.614L109.706 176.47L109.665 176.968M191.536 189.847C176.256 201.357 155.619 206.516 130.616 206.516H81.5068H81.0068V206.016V200.96C98.6676 199.571 100.454 198.38 100.454 181.116V176.614L100.407 176.61L100.454 176.112H100.954V176.158L109.665 176.968M109.665 176.968L109.711 176.47M109.665 176.968L118.71 177.712V179.727C118.71 195.205 125.457 198.975 140.339 198.975C178.042 198.975 195.902 170.996 195.902 139.048C195.902 118.013 187.964 100.551 172.486 91.0259L109.711 176.47M109.711 176.47L118.751 177.214L119.21 177.252V177.712V179.727C119.21 187.411 120.886 192.032 124.259 194.767C127.66 197.526 132.908 198.475 140.339 198.475C159.055 198.475 172.8 191.537 181.875 180.672C190.961 169.794 195.402 154.934 195.402 139.048C195.402 118.136 187.516 100.862 172.224 91.4517L172.213 91.4448L172.213 91.4447C163.192 85.5613 151.391 82.7946 137.561 82.7946C133.117 82.7946 129.625 83.0911 126.982 83.556C124.337 84.0214 122.579 84.6494 121.567 85.2902M109.711 176.47L121.567 85.2902M121.567 85.2902C121.57 85.2881 121.573 85.286 121.576 85.2839L121.289 84.8743L121.558 85.2962C121.561 85.2942 121.564 85.2922 121.567 85.2902Z" fill="black" stroke="white"/>
<path class="cls-1" d="M297.981 121.322C297.981 133.474 297.386 169.609 296.941 172.807C296.495 175.525 295.01 176.804 292.04 176.804H283.425C282.534 176.804 282.237 177.124 282.237 177.764V181.761C282.237 182.88 282.534 183.2 283.128 183.2C285.208 183.2 291.148 182.72 304.218 182.72C311.645 182.72 326.794 183.2 332.438 183.2C342.537 183.2 365.707 183.04 380.262 166.091C390.064 154.579 394.817 142.428 394.817 124.2C394.817 105.652 387.985 92.2215 378.183 83.5874C364.519 71.1159 348.478 69.0373 328.576 69.0373C321.15 69.0373 313.724 69.5169 306.298 69.5169C295.901 69.5169 288.178 69.0373 283.871 69.0373C283.128 69.0373 282.534 69.357 282.534 69.9966V74.3137C282.534 75.1131 283.128 75.4329 283.722 75.4329H291.743C294.713 75.4329 296.792 76.0725 297.089 79.9099C297.386 82.3083 297.981 105.013 297.981 109.17V121.322ZM316.694 113.327C316.694 110.769 316.694 89.9831 316.991 83.2676C316.991 80.0698 317.585 77.5115 319.665 76.2324C322.041 74.6335 325.903 74.6335 329.17 74.6335C341.349 74.6335 354.419 80.3896 362.439 89.6633C369.271 97.9776 374.321 111.728 374.321 124.52C374.321 139.23 369.865 152.341 363.627 160.975C356.201 171.528 344.32 177.124 332.735 177.124C327.091 177.124 321.447 175.845 319.665 172.807C317.585 169.609 316.991 167.051 316.991 163.853C316.991 153.94 316.694 126.758 316.694 124.839V113.327Z" fill="black"/>
<path class="cls-1" d="M455.581 158.417C455.581 163.533 455.581 171.848 455.284 174.086C454.987 176.644 452.908 177.284 451.126 177.284H448.601C447.858 177.284 447.561 177.604 447.561 178.243V182.081C447.561 182.88 447.858 183.2 448.749 183.2C450.235 183.2 455.581 182.72 464.493 182.72C473.553 182.72 478.305 183.2 479.197 183.2C480.088 183.2 480.385 182.72 480.385 181.921V178.403C480.385 177.604 480.088 177.284 478.9 177.284H476.226C473.85 177.284 471.176 176.964 471.176 174.726V144.026C471.176 134.913 471.473 126.918 464.641 120.522C460.186 116.365 456.324 114.127 449.789 114.127C442.809 114.127 434.788 117.644 430.63 123.88H429.739V113.967C429.739 106.132 429.739 73.834 430.036 70.956C430.333 68.3977 430.036 67.1186 428.847 67.1186C427.362 67.1186 426.471 67.7581 424.689 68.3977C419.936 70.956 409.837 76.3923 405.381 77.6714C403.599 78.6308 403.302 78.9505 403.302 79.5901V81.189C403.302 81.8286 403.599 82.1484 404.49 82.4682L407.163 83.4275C412.213 85.666 413.995 88.8638 413.995 97.8178L414.292 154.899C414.292 162.254 414.144 171.528 413.55 174.726C413.104 176.644 411.025 177.284 408.648 177.284H404.935C404.193 177.284 403.599 177.604 403.599 178.403V181.921C403.599 182.88 404.044 183.2 404.787 183.2C405.975 183.2 411.619 182.72 420.827 182.72C428.55 182.72 435.085 183.2 436.274 183.2C437.165 183.2 437.462 182.56 437.462 181.601V178.723C437.462 177.604 436.868 177.284 435.977 177.284H432.412C430.333 177.284 429.739 175.685 429.739 170.568V136.032C429.739 132.994 431.224 129.796 432.412 128.197C435.679 124.68 439.541 122.441 443.403 122.441C446.967 122.441 449.344 123.72 451.72 126.278C455.581 130.436 455.581 139.39 455.581 147.704V158.417Z" fill="black"/>
<path class="cls-1" d="M495.819 172.967C495.819 176.005 494.334 177.284 491.958 177.284H486.76C485.72 177.284 485.423 177.604 485.423 178.563V182.081C485.423 182.88 485.72 183.2 486.463 183.2C487.651 183.2 493.443 182.72 503.84 182.72C514.682 182.72 521.217 183.2 522.257 183.2C522.999 183.2 523.296 182.88 523.296 182.081V178.403C523.296 177.604 522.999 177.284 522.108 177.284H515.573C512.603 177.284 511.414 175.685 511.414 170.568V140.029C511.414 137.951 512.008 134.433 513.197 132.194C514.979 128.837 517.652 127.558 519.435 127.558C520.92 127.558 522.405 127.877 523.593 128.837C524.781 129.476 526.564 130.116 528.643 130.116C532.505 130.116 536.663 125.959 536.663 121.482C536.663 117.005 533.693 113.487 528.94 113.487C522.405 113.487 516.167 118.923 511.117 127.877H510.523L509.187 116.045C509.038 115.086 508.741 114.127 507.85 114.127C506.959 114.127 506.365 114.446 505.473 114.766L487.502 123.88C486.611 124.36 486.314 124.68 486.314 125.319V126.278C486.314 126.918 486.611 127.238 487.502 127.558L490.176 129.157C494.631 131.715 495.819 134.273 495.819 141.628V172.967Z" fill="black"/>
<path class="cls-1" d="M590.87 182.72C591.019 183.999 591.762 184.639 592.95 184.639C594.138 184.639 595.029 184.319 595.92 183.999L614.337 178.403C614.931 178.243 615.228 177.923 615.08 176.964L614.634 174.406C614.486 173.766 614.04 173.606 612.852 173.766C611.07 174.086 608.99 174.086 608.099 174.086C606.911 174.086 605.426 173.446 604.832 168.65C604.535 165.452 604.535 157.777 604.535 150.102V138.43C604.535 122.601 605.426 118.444 605.426 116.845C605.426 116.205 605.129 115.246 604.237 115.246C603.643 115.246 603.049 115.406 602.307 115.566C601.564 115.726 600.821 115.886 599.782 115.886H581.365C580.028 115.886 579.583 116.045 579.583 117.165V120.043C579.583 120.682 579.88 121.002 582.553 121.322C586.118 121.642 588.94 122.601 588.94 126.758V164.493C588.94 166.411 587.9 168.65 587.306 169.609C584.93 173.127 580.474 175.685 576.909 175.685C573.642 175.685 570.374 176.005 567.404 171.208C563.394 164.493 564.433 153.62 564.433 147.224V137.151C564.433 126.119 565.028 118.764 565.028 117.165C565.028 116.205 564.433 115.246 563.542 115.246C563.097 115.246 562.503 115.406 561.909 115.566C561.314 115.726 560.572 115.886 559.681 115.886H541.858C540.373 115.886 540.076 116.205 540.076 117.165V120.043C540.076 121.002 540.967 121.002 543.343 121.322C546.017 121.642 548.096 123.081 548.542 127.078C548.839 128.997 548.839 134.753 548.839 138.59C548.839 141.948 548.69 147.544 548.69 155.219C548.69 164.173 548.839 170.089 554.185 177.604C559.384 184.639 564.136 184.639 569.483 184.639C577.206 184.639 585.821 179.522 589.088 173.766H589.979L590.87 182.72Z" fill="black"/>
<path class="cls-1" d="M648.849 185.119C650.631 185.119 651.522 183.839 652.562 181.761C653.304 180.162 664.444 152.82 666.374 148.503C669.345 141.788 676.177 125.959 678.85 123.081C680.336 121.642 682.712 121.322 684.494 121.322H687.019C687.762 121.322 688.059 120.842 688.059 120.043V116.525C688.059 115.726 687.762 115.406 686.573 115.406C685.385 115.406 681.821 115.886 674.989 115.886C666.969 115.886 663.701 115.406 661.919 115.406C661.028 115.406 660.731 115.726 660.731 116.525V120.043C660.731 120.842 661.028 121.322 661.622 121.322H663.998C666.671 121.322 668.454 124.2 667.266 128.357C665.186 135.872 656.275 159.056 654.493 163.533H653.601L646.175 142.747C645.284 139.869 641.126 126.918 641.126 124.04C641.126 122.281 642.611 121.322 644.393 121.322H646.769C647.661 121.322 647.958 120.682 647.958 119.723V116.685C647.958 115.726 647.661 115.406 646.472 115.406C644.69 115.406 640.829 115.886 631.62 115.886C619.441 115.886 617.065 115.406 615.283 115.406C614.094 115.406 613.797 115.726 613.797 116.685V120.043C613.797 121.002 614.094 121.322 614.837 121.322H617.659C620.332 121.322 621.521 122.601 623.897 127.078C625.085 129.157 630.878 145.625 631.917 148.823C633.402 152.82 644.096 179.842 644.987 181.441C646.175 183.839 647.066 185.119 648.849 185.119Z" fill="black"/>
<path class="cls-1" d="M734.556 121.322C734.556 133.474 733.961 169.609 733.516 172.807C733.07 175.525 731.585 176.804 728.615 176.804H720C719.109 176.804 718.812 177.124 718.812 177.764V181.761C718.812 182.88 719.109 183.2 719.703 183.2C721.783 183.2 727.724 182.72 740.793 182.72C748.22 182.72 763.369 183.2 769.013 183.2C779.112 183.2 802.282 183.04 816.837 166.091C826.64 154.579 831.392 142.428 831.392 124.2C831.392 105.652 824.56 92.2215 814.758 83.5874C801.094 71.1159 785.053 69.0373 765.151 69.0373C757.725 69.0373 750.299 69.5169 742.873 69.5169C732.476 69.5169 724.753 69.0373 720.446 69.0373C719.703 69.0373 719.109 69.357 719.109 69.9966V74.3137C719.109 75.1131 719.703 75.4329 720.297 75.4329H728.318C731.288 75.4329 733.367 76.0725 733.664 79.9099C733.961 82.3083 734.556 105.013 734.556 109.17V121.322ZM753.269 113.327C753.269 110.769 753.269 89.9831 753.566 83.2676C753.566 80.0698 754.161 77.5115 756.24 76.2324C758.616 74.6335 762.478 74.6335 765.745 74.6335C777.924 74.6335 790.994 80.3896 799.014 89.6633C805.846 97.9776 810.896 111.728 810.896 124.52C810.896 139.23 806.44 152.341 800.203 160.975C792.776 171.528 780.895 177.124 769.31 177.124C763.666 177.124 758.022 175.845 756.24 172.807C754.161 169.609 753.566 167.051 753.566 163.853C753.566 153.94 753.269 126.758 753.269 124.839V113.327Z" fill="black"/>
<path class="cls-1" d="M859.305 142.268H895.248C897.921 142.268 899.406 142.108 899.406 139.709C899.406 133.154 893.911 114.127 876.979 114.127C864.058 114.127 857.374 117.325 851.136 125.959C844.75 134.913 843.859 140.829 843.859 149.623C843.859 159.536 845.344 167.53 852.176 176.005C857.374 182.4 864.058 184.639 873.563 184.639C889.901 184.639 897.476 173.766 900.594 167.69C901.634 165.612 901.337 164.972 900.594 164.493L898.367 163.054C897.773 162.734 897.178 162.734 896.584 163.853C893.465 168.97 887.822 173.127 878.613 173.127C870.147 173.127 859.305 163.533 859.305 147.224V142.268ZM859.751 136.512C861.682 125.799 866.137 120.043 873.415 120.043C881.138 120.043 882.623 129.476 882.623 134.273C882.623 135.552 880.841 136.512 877.722 136.512H859.751Z" fill="black"/>
<path class="cls-1" d="M911.673 178.723C911.822 179.362 912.267 179.842 912.861 180.482C914.495 181.921 921.03 184.639 928.902 184.639C943.606 184.639 953.705 175.045 953.705 161.614C953.705 156.178 952.517 152.341 949.25 148.823C945.388 144.346 941.229 142.428 934.397 140.509C925.486 137.951 921.03 136.032 921.03 129.476C921.03 123.88 925.783 120.362 931.278 120.362C936.18 120.362 938.853 123.241 940.635 125.319L947.764 133.953C948.061 134.593 948.507 134.753 948.952 134.593L951.774 133.154C952.071 132.834 952.071 132.035 951.923 131.395L949.992 120.522C949.844 119.563 949.398 118.923 947.17 117.644C944.497 116.045 940.041 114.127 932.764 114.127C926.674 114.127 922.515 115.566 917.317 119.403C912.119 123.4 909.743 129.157 909.743 136.192C909.743 147.544 917.763 152.98 927.862 156.178C938.259 159.376 942.12 162.254 942.12 168.65C942.12 174.566 937.368 178.403 931.575 178.403C924.298 178.403 921.476 174.566 918.802 169.769L913.901 160.815C913.604 160.175 913.159 160.175 912.564 160.335L909.743 161.295C909.297 161.455 909.148 161.934 909.297 162.574L911.673 178.723Z" fill="black"/>
<path class="cls-1" d="M998.279 174.885C1000.36 181.761 1005.11 184.639 1010.76 184.639C1019.37 184.639 1022.93 178.243 1024.42 175.365C1025.01 173.766 1024.72 173.127 1024.12 172.807L1022.34 171.528C1021.75 171.208 1021.45 171.208 1020.85 172.167C1020.26 173.446 1018.18 174.726 1016.1 174.726C1013.43 174.726 1012.24 172.167 1012.24 163.533V155.858L1011.94 130.596C1011.94 126.278 1011.65 121.801 1008.38 118.604C1005.71 116.045 1003.03 114.127 994.715 114.127C984.912 114.127 976.892 117.964 970.654 123.081C966.199 126.598 963.822 131.715 963.822 136.192C963.822 139.709 966.198 141.628 968.872 141.628C975.11 141.628 977.783 138.11 977.783 132.354C977.783 128.517 976.298 126.119 978.377 124.52C980.754 122.601 984.318 121.642 986.992 121.642C990.259 121.642 992.933 122.281 994.418 124.04C996.2 125.959 996.497 129.796 996.794 132.994V141.308C993.527 143.867 987.883 146.425 978.674 151.222C967.981 156.338 965.01 163.533 965.01 170.888C965.01 179.842 969.763 184.639 975.258 184.639C978.229 184.639 981.348 184.639 984.764 183.52C990.556 181.441 994.418 178.723 997.685 174.885H998.279ZM996.794 168.17C996.794 171.048 991.447 175.525 987.289 175.845C983.724 175.845 980.457 172.647 980.457 166.091C980.457 154.419 990.259 151.701 996.794 147.224V168.17Z" fill="black"/>
<path class="cls-1" d="M1037.54 159.696C1037.54 164.173 1037.39 169.289 1037.25 174.086C1037.1 176.644 1036.35 177.284 1034.87 177.284H1028.33C1027.44 177.284 1026.85 177.604 1026.85 178.563V181.601C1026.85 182.88 1027.29 183.2 1028.04 183.2C1029.82 183.2 1035.46 182.72 1044.08 182.72C1054.03 182.72 1060.86 183.2 1062.05 183.2C1062.94 183.2 1063.24 182.56 1063.24 181.601V178.403C1063.24 177.604 1062.94 177.284 1061.75 177.284H1055.81C1054.33 177.284 1053.73 176.005 1053.43 173.127C1053.14 171.208 1053.14 165.452 1053.14 159.376V142.108C1053.14 128.837 1053.14 118.604 1053.43 116.045C1053.58 114.766 1053.14 114.127 1052.25 114.127C1051.36 114.127 1050.17 114.446 1048.68 115.086C1046.16 116.205 1031.45 121.801 1029.37 122.761C1028.63 123.081 1028.33 123.4 1028.33 124.04V125.799C1028.33 126.438 1028.48 126.918 1029.82 127.238C1036.65 129.157 1037.54 132.354 1037.54 137.151V159.696ZM1052.69 87.7446C1052.69 83.9072 1049.72 78.4709 1043.48 78.4709C1037.39 78.4709 1033.09 83.5874 1033.09 88.3841C1033.09 93.9804 1037.84 97.9776 1042.59 97.9776C1049.57 97.9776 1052.69 92.5413 1052.69 87.7446Z" fill="black"/>
</g></g>
</svg>
