<svg viewBox="0 0 1094.28 252" fill="none" xmlns="http://www.w3.org/2000/svg">
<g id="Layer_2" data-name="Layer 2"><g id="Layer_1-2" data-name="Layer 1">
<path class="cls-1" d="M29.8885 152.455C12.734 135.686 3.37538 113.472 3.78981 90.5063C4.20425 67.5406 14.3593 45.6216 32.1095 29.3802C49.8597 13.1387 73.8148 3.84689 98.914 3.46768C124.013 3.08847 148.29 11.6516 166.617 27.348L168.845 25.3093C149.981 8.81669 124.812 -0.265541 98.723 0.00591442C72.6338 0.27737 47.6969 9.88094 29.2479 26.7618C10.7988 43.6426 0.303136 66.4599 0.00646385 90.3315C-0.290209 114.203 9.63572 137.233 27.6604 154.493L29.8885 152.455Z" fill="black"/>
<path class="cls-1" d="M171.081 27.3335L168.853 29.3721C186.179 46.1142 195.682 68.3819 195.339 91.4369C194.995 114.492 184.833 136.514 167.015 152.818C149.196 169.122 125.128 178.421 99.9311 178.735C74.7343 179.049 50.3981 170.354 32.1007 154.5L29.8727 156.539C48.6279 173.542 73.9793 183.056 100.381 183C126.783 182.944 152.086 173.322 170.755 156.24C189.423 139.158 199.939 116.006 200 91.8486C200.061 67.691 189.663 44.4945 171.081 27.3335V27.3335Z" fill="black"/>
<path class="cls-1" d="M135.067 38.158C127.343 31.0906 116.867 27.1201 105.944 27.1201C95.0205 27.1201 84.5445 31.0906 76.8205 38.158C69.0965 45.2255 64.7572 54.811 64.7572 64.8059C64.7572 74.8008 69.0965 84.3864 76.8205 91.4538L135.067 38.158Z" fill="black"/>
<path class="cls-1" d="M64.8318 141.514C72.5821 148.469 83.02 152.344 93.876 152.296C104.732 152.247 115.128 148.28 122.804 141.255C130.48 134.231 134.815 124.718 134.866 114.785C134.918 104.852 130.681 95.3015 123.079 88.2108L64.8318 141.514Z" fill="black"/>
<path class="cls-1" d="M245.743 86.7033C245.743 98.855 245.149 134.991 244.704 138.188C244.258 140.907 242.773 142.186 239.802 142.186H231.188C230.297 142.186 230 142.505 230 143.145V147.142C230 148.262 230.297 148.581 230.891 148.581C232.97 148.581 238.911 148.102 251.981 148.102C259.407 148.102 274.557 148.581 280.201 148.581C290.3 148.581 313.47 148.421 328.025 131.473C337.827 119.961 342.58 107.809 342.58 89.5813C342.58 71.0339 335.748 57.603 325.946 48.9688C312.281 36.4973 296.241 34.4187 276.339 34.4187C268.913 34.4187 261.487 34.8984 254.061 34.8984C243.664 34.8984 235.941 34.4187 231.634 34.4187C230.891 34.4187 230.297 34.7385 230.297 35.378V39.6951C230.297 40.4946 230.891 40.8144 231.485 40.8144H239.505C242.476 40.8144 244.555 41.4539 244.852 45.2913C245.149 47.6897 245.743 70.3943 245.743 74.5515V86.7033ZM264.457 78.7087C264.457 76.1504 264.457 55.3645 264.754 48.6491C264.754 45.4512 265.348 42.893 267.428 41.6138C269.804 40.0149 273.666 40.0149 276.933 40.0149C289.112 40.0149 302.182 45.771 310.202 55.0447C317.034 63.3591 322.084 77.1098 322.084 89.9011C322.084 104.611 317.628 117.722 311.39 126.356C303.964 136.909 292.082 142.505 280.498 142.505C274.854 142.505 269.21 141.226 267.428 138.188C265.348 134.991 264.754 132.432 264.754 129.234C264.754 119.321 264.457 92.1396 264.457 90.2209V78.7087Z" fill="black"/>
<path class="cls-1" d="M403.344 123.798C403.344 128.915 403.344 137.229 403.047 139.467C402.75 142.026 400.671 142.665 398.889 142.665H396.364C395.621 142.665 395.324 142.985 395.324 143.625V147.462C395.324 148.262 395.621 148.581 396.512 148.581C397.998 148.581 403.344 148.102 412.256 148.102C421.316 148.102 426.068 148.581 426.959 148.581C427.851 148.581 428.148 148.102 428.148 147.302V143.785C428.148 142.985 427.851 142.665 426.662 142.665H423.989C421.613 142.665 418.939 142.346 418.939 140.107V109.408C418.939 100.294 419.236 92.2995 412.404 85.9038C407.949 81.7466 404.087 79.5081 397.552 79.5081C390.571 79.5081 382.551 83.0257 378.393 89.2615H377.501V79.3482C377.501 71.5135 377.501 39.2154 377.798 36.3374C378.096 33.7791 377.798 32.5 376.61 32.5C375.125 32.5 374.234 33.1396 372.452 33.7791C367.699 36.3374 357.599 41.7737 353.144 43.0529C351.361 44.0122 351.064 44.332 351.064 44.9715V46.5705C351.064 47.21 351.361 47.5298 352.253 47.8496L354.926 48.8089C359.976 51.0474 361.758 54.2453 361.758 63.1992L362.055 120.28C362.055 127.635 361.907 136.909 361.312 140.107C360.867 142.026 358.788 142.665 356.411 142.665H352.698C351.956 142.665 351.361 142.985 351.361 143.785V147.302C351.361 148.262 351.807 148.581 352.55 148.581C353.738 148.581 359.382 148.102 368.59 148.102C376.313 148.102 382.848 148.581 384.036 148.581C384.928 148.581 385.225 147.942 385.225 146.982V144.104C385.225 142.985 384.631 142.665 383.739 142.665H380.175C378.096 142.665 377.501 141.066 377.501 135.95V101.413C377.501 98.3753 378.987 95.1775 380.175 93.5786C383.442 90.061 387.304 87.8225 391.166 87.8225C394.73 87.8225 397.106 89.1016 399.483 91.6599C403.344 95.8171 403.344 104.771 403.344 113.085V123.798Z" fill="black"/>
<path class="cls-1" d="M443.582 138.348C443.582 141.386 442.097 142.665 439.721 142.665H434.522C433.483 142.665 433.186 142.985 433.186 143.944V147.462C433.186 148.262 433.483 148.581 434.225 148.581C435.414 148.581 441.206 148.102 451.603 148.102C462.445 148.102 468.98 148.581 470.019 148.581C470.762 148.581 471.059 148.262 471.059 147.462V143.785C471.059 142.985 470.762 142.665 469.871 142.665H463.336C460.365 142.665 459.177 141.066 459.177 135.95V105.411C459.177 103.332 459.771 99.8144 460.96 97.5759C462.742 94.2182 465.415 92.939 467.197 92.939C468.683 92.939 470.168 93.2588 471.356 94.2182C472.544 94.8577 474.327 95.4973 476.406 95.4973C480.267 95.4973 484.426 91.3401 484.426 86.8631C484.426 82.3862 481.456 78.8686 476.703 78.8686C470.168 78.8686 463.93 84.3049 458.88 93.2588H458.286L456.949 81.4268C456.801 80.4675 456.504 79.5081 455.613 79.5081C454.722 79.5081 454.127 79.8279 453.236 80.1477L435.265 89.2615C434.374 89.7412 434.077 90.061 434.077 90.7005V91.6599C434.077 92.2995 434.374 92.6192 435.265 92.939L437.939 94.5379C442.394 97.0962 443.582 99.6545 443.582 107.009V138.348Z" fill="black"/>
<path class="cls-1" d="M538.633 148.102C538.782 149.381 539.524 150.02 540.713 150.02C541.901 150.02 542.792 149.701 543.683 149.381L562.1 143.785C562.694 143.625 562.991 143.305 562.842 142.346L562.397 139.787C562.248 139.148 561.803 138.988 560.615 139.148C558.832 139.467 556.753 139.467 555.862 139.467C554.674 139.467 553.189 138.828 552.594 134.031C552.297 130.833 552.297 123.159 552.297 115.484V103.812C552.297 87.9824 553.189 83.8252 553.189 82.2263C553.189 81.5867 552.891 80.6274 552 80.6274C551.406 80.6274 550.812 80.7873 550.07 80.9472C549.327 81.107 548.584 81.2669 547.545 81.2669H529.128C527.791 81.2669 527.346 81.4268 527.346 82.5461V85.4241C527.346 86.0637 527.643 86.3835 530.316 86.7033C533.881 87.023 536.703 87.9824 536.703 92.1396V129.874C536.703 131.793 535.663 134.031 535.069 134.991C532.692 138.508 528.237 141.066 524.672 141.066C521.405 141.066 518.137 141.386 515.167 136.589C511.157 129.874 512.196 119.001 512.196 112.606V102.533C512.196 91.5 512.79 84.145 512.79 82.5461C512.79 81.5867 512.196 80.6274 511.305 80.6274C510.86 80.6274 510.266 80.7873 509.671 80.9472C509.077 81.107 508.335 81.2669 507.444 81.2669H489.621C488.136 81.2669 487.839 81.5867 487.839 82.5461V85.4241C487.839 86.3835 488.73 86.3835 491.106 86.7033C493.78 87.023 495.859 88.4621 496.304 92.4593C496.601 94.378 496.601 100.134 496.601 103.972C496.601 107.329 496.453 112.925 496.453 120.6C496.453 129.554 496.601 135.47 501.948 142.985C507.147 150.02 511.899 150.02 517.246 150.02C524.969 150.02 533.584 144.904 536.851 139.148H537.742L538.633 148.102Z" fill="black"/>
<path class="cls-1" d="M596.612 150.5C598.394 150.5 599.285 149.221 600.325 147.142C601.067 145.543 612.207 118.202 614.137 113.885C617.108 107.169 623.94 91.3401 626.613 88.4621C628.098 87.023 630.475 86.7033 632.257 86.7033H634.782C635.525 86.7033 635.822 86.2236 635.822 85.4241V81.9065C635.822 81.107 635.525 80.7873 634.336 80.7873C633.148 80.7873 629.584 81.2669 622.752 81.2669C614.731 81.2669 611.464 80.7873 609.682 80.7873C608.79 80.7873 608.493 81.107 608.493 81.9065V85.4241C608.493 86.2236 608.791 86.7033 609.385 86.7033H611.761C614.434 86.7033 616.217 89.5813 615.028 93.7385C612.949 101.253 604.038 124.438 602.255 128.915H601.364L593.938 108.129C593.047 105.251 588.888 92.2995 588.888 89.4214C588.888 87.6626 590.374 86.7033 592.156 86.7033H594.532C595.423 86.7033 595.721 86.0637 595.721 85.1043V82.0664C595.721 81.107 595.423 80.7873 594.235 80.7873C592.453 80.7873 588.591 81.2669 579.383 81.2669C567.204 81.2669 564.828 80.7873 563.046 80.7873C561.857 80.7873 561.56 81.107 561.56 82.0664V85.4241C561.56 86.3835 561.857 86.7033 562.6 86.7033H565.422C568.095 86.7033 569.283 87.9824 571.66 92.4593C572.848 94.5379 578.64 111.007 579.68 114.205C581.165 118.202 591.859 145.224 592.75 146.822C593.938 149.221 594.829 150.5 596.612 150.5Z" fill="black"/>
<path class="cls-1" d="M682.318 86.7033C682.318 98.855 681.724 134.991 681.279 138.188C680.833 140.907 679.348 142.186 676.378 142.186H667.763C666.872 142.186 666.575 142.505 666.575 143.145V147.142C666.575 148.262 666.872 148.581 667.466 148.581C669.545 148.581 675.486 148.102 688.556 148.102C695.982 148.102 711.132 148.581 716.776 148.581C726.875 148.581 750.045 148.421 764.6 131.473C774.402 119.961 779.155 107.809 779.155 89.5813C779.155 71.0339 772.323 57.603 762.521 48.9688C748.857 36.4973 732.816 34.4187 712.914 34.4187C705.488 34.4187 698.062 34.8984 690.636 34.8984C680.239 34.8984 672.516 34.4187 668.209 34.4187C667.466 34.4187 666.872 34.7385 666.872 35.378V39.6951C666.872 40.4946 667.466 40.8144 668.06 40.8144H676.08C679.051 40.8144 681.13 41.4539 681.427 45.2913C681.724 47.6897 682.318 70.3943 682.318 74.5515V86.7033ZM701.032 78.7087C701.032 76.1504 701.032 55.3645 701.329 48.6491C701.329 45.4512 701.923 42.893 704.003 41.6138C706.379 40.0149 710.241 40.0149 713.508 40.0149C725.687 40.0149 738.757 45.771 746.777 55.0447C753.609 63.3591 758.659 77.1098 758.659 89.9011C758.659 104.611 754.203 117.722 747.965 126.356C740.539 136.909 728.657 142.505 717.073 142.505C711.429 142.505 705.785 141.226 704.003 138.188C701.923 134.991 701.329 132.432 701.329 129.234C701.329 119.321 701.032 92.1396 701.032 90.2209V78.7087Z" fill="black"/>
<path class="cls-1" d="M807.068 107.649H843.011C845.684 107.649 847.169 107.489 847.169 105.091C847.169 98.5352 841.674 79.5081 824.742 79.5081C811.821 79.5081 805.137 82.706 798.899 91.3401C792.513 100.294 791.622 106.21 791.622 115.004C791.622 124.917 793.107 132.912 799.939 141.386C805.137 147.782 811.821 150.02 821.326 150.02C837.664 150.02 845.238 139.148 848.357 133.072C849.397 130.993 849.1 130.354 848.357 129.874L846.13 128.435C845.535 128.115 844.941 128.115 844.347 129.234C841.228 134.351 835.584 138.508 826.376 138.508C817.91 138.508 807.068 128.915 807.068 112.606V107.649ZM807.514 101.893C809.444 91.1802 813.9 85.4241 821.178 85.4241C828.901 85.4241 830.386 94.8577 830.386 99.6545C830.386 100.934 828.604 101.893 825.485 101.893H807.514Z" fill="black"/>
<path class="cls-1" d="M859.436 144.104C859.585 144.744 860.03 145.224 860.624 145.863C862.258 147.302 868.793 150.02 876.665 150.02C891.369 150.02 901.468 140.427 901.468 126.996C901.468 121.56 900.28 117.722 897.012 114.205C893.151 109.728 888.992 107.809 882.16 105.89C873.249 103.332 868.793 101.413 868.793 94.8577C868.793 89.2615 873.546 85.7439 879.041 85.7439C883.942 85.7439 886.616 88.622 888.398 90.7005L895.527 99.3347C895.824 99.9743 896.27 100.134 896.715 99.9743L899.537 98.5352C899.834 98.2155 899.834 97.416 899.686 96.7764L897.755 85.9038C897.606 84.9444 897.161 84.3049 894.933 83.0257C892.26 81.4268 887.804 79.5081 880.526 79.5081C874.437 79.5081 870.278 80.9472 865.08 84.7846C859.882 88.7818 857.505 94.5379 857.505 101.573C857.505 112.925 865.526 118.362 875.625 121.56C886.022 124.757 889.883 127.636 889.883 134.031C889.883 139.947 885.131 143.785 879.338 143.785C872.061 143.785 869.239 139.947 866.565 135.15L861.664 126.196C861.367 125.557 860.921 125.557 860.327 125.717L857.505 126.676C857.06 126.836 856.911 127.316 857.06 127.955L859.436 144.104Z" fill="black"/>
<path class="cls-1" d="M946.042 140.267C948.122 147.142 952.874 150.02 958.518 150.02C967.132 150.02 970.697 143.625 972.182 140.747C972.776 139.148 972.479 138.508 971.885 138.188L970.103 136.909C969.509 136.589 969.212 136.589 968.618 137.549C968.024 138.828 965.944 140.107 963.865 140.107C961.192 140.107 960.003 137.549 960.003 128.915V121.24L959.706 95.977C959.706 91.6599 959.409 87.1829 956.142 83.9851C953.468 81.4268 950.795 79.5081 942.478 79.5081C932.675 79.5081 924.655 83.3455 918.417 88.4621C913.961 91.9797 911.585 97.0962 911.585 101.573C911.585 105.091 913.961 107.009 916.635 107.009C922.873 107.009 925.546 103.492 925.546 97.7358C925.546 93.8984 924.061 91.5 926.14 89.9011C928.517 87.9824 932.081 87.023 934.755 87.023C938.022 87.023 940.695 87.6626 942.181 89.4214C943.963 91.3401 944.26 95.1775 944.557 98.3753V106.69C941.29 109.248 935.646 111.806 926.437 116.603C915.744 121.72 912.773 128.915 912.773 136.27C912.773 145.224 917.526 150.02 923.021 150.02C925.992 150.02 929.111 150.02 932.527 148.901C938.319 146.822 942.181 144.104 945.448 140.267H946.042ZM944.557 133.551C944.557 136.43 939.21 140.907 935.052 141.226C931.487 141.226 928.22 138.028 928.22 131.473C928.22 119.801 938.022 117.083 944.557 112.606V133.551Z" fill="black"/>
<path class="cls-1" d="M985.306 125.077C985.306 129.554 985.157 134.671 985.009 139.467C984.86 142.026 984.117 142.665 982.632 142.665H976.097C975.206 142.665 974.612 142.985 974.612 143.944V146.982C974.612 148.262 975.058 148.581 975.8 148.581C977.582 148.581 983.226 148.102 991.841 148.102C1001.79 148.102 1008.62 148.581 1009.81 148.581C1010.7 148.581 1011 147.942 1011 146.982V143.785C1011 142.985 1010.7 142.665 1009.51 142.665H1003.57C1002.09 142.665 1001.49 141.386 1001.2 138.508C1000.9 136.589 1000.9 130.833 1000.9 124.757V107.489C1000.9 94.2182 1000.9 83.9851 1001.2 81.4268C1001.35 80.1477 1000.9 79.5081 1000.01 79.5081C999.118 79.5081 997.93 79.8279 996.445 80.4675C993.92 81.5867 979.216 87.1829 977.137 88.1423C976.394 88.4621 976.097 88.7818 976.097 89.4214V91.1802C976.097 91.8198 976.246 92.2995 977.582 92.6192C984.414 94.5379 985.306 97.7358 985.306 102.533V125.077ZM1000.45 53.126C1000.45 49.2886 997.484 43.8523 991.246 43.8523C985.157 43.8523 980.85 48.9688 980.85 53.7656C980.85 59.3618 985.603 63.3591 990.355 63.3591C997.336 63.3591 1000.45 57.9228 1000.45 53.126Z" fill="black"/>
</g></g>
</svg>
